<?xml version="1.0" encoding="utf-8"?>
<!-- Generator: Adobe Illustrator 24.2.1, SVG Export Plug-In . SVG Version: 6.00 Build 0)  -->
<svg version="1.0" id="Layer_1" xmlns="http://www.w3.org/2000/svg" xmlns:xlink="http://www.w3.org/1999/xlink" x="0px" y="0px"
	 viewBox="0 0 1500 1000" style="enable-background:new 0 0 1500 1000;" xml:space="preserve">
<style type="text/css">
	.st0{fill:url(#SVGID_1_);}
	.st1{fill:url(#SVGID_2_);}
	.st2{fill:url(#SVGID_3_);}
	.st3{fill:url(#SVGID_4_);}
	.st4{fill:url(#SVGID_5_);}
	.st5{fill:url(#SVGID_6_);}
	.st6{fill:url(#SVGID_7_);}
	.st7{fill:url(#SVGID_8_);}
	.st8{fill:url(#SVGID_9_);}
	.st9{fill:url(#SVGID_10_);}
	.st10{fill:url(#SVGID_11_);}
	.st11{fill:url(#SVGID_12_);}
	.st12{fill:url(#SVGID_13_);}
	.st13{fill:url(#SVGID_14_);}
	.st14{fill:url(#SVGID_15_);}
	.st15{fill:url(#SVGID_16_);}
	.st16{fill:#FFFFFF;}
	.st17{fill:url(#SVGID_17_);}
	.st18{fill:url(#SVGID_18_);}
	.st19{fill:url(#SVGID_19_);}
	.st20{fill:url(#SVGID_20_);}
	.st21{fill:url(#SVGID_21_);}
	.st22{fill:url(#SVGID_22_);}
	.st23{fill:url(#SVGID_23_);}
	.st24{fill:url(#SVGID_24_);}
</style>
<linearGradient id="SVGID_1_" gradientUnits="userSpaceOnUse" x1="930.0178" y1="373.9422" x2="867.5901" y2="664.0471">
	<stop  offset="0" style="stop-color:#61F5E5"/>
	<stop  offset="1" style="stop-color:#005EFF"/>
</linearGradient>
<path class="st0" d="M1057.3,556.5L870.1,707.9L715.7,595.7l204.1-122.6c8.8-5.3,20-4.8,28.2,1.4L1057.3,556.5z"/>
<linearGradient id="SVGID_2_" gradientUnits="userSpaceOnUse" x1="550.96" y1="522.27" x2="633.7897" y2="391.9435">
	<stop  offset="0" style="stop-color:#FFD524"/>
	<stop  offset="1" style="stop-color:#F15A29"/>
</linearGradient>
<path class="st1" d="M442.7,443.5l187.2-151.3l154.4,112.1L580.2,526.9c-8.8,5.3-20,4.8-28.2-1.4L442.7,443.5z"/>
<linearGradient id="SVGID_3_" gradientUnits="userSpaceOnUse" x1="917.1599" y1="546.9097" x2="683.7307" y2="277.5683">
	<stop  offset="0" style="stop-color:#F15A29"/>
	<stop  offset="1" style="stop-color:#FFD524"/>
</linearGradient>
<path class="st2" d="M806,239.4l251.3,204.1L883.4,565.1L754.6,426.4c-56.1-60.5-142.4-82.6-220.7-56.6l0,0l160-130.3
	C726.5,212.9,773.3,212.8,806,239.4z"/>
<linearGradient id="SVGID_4_" gradientUnits="userSpaceOnUse" x1="652.9412" y1="405.3064" x2="748.4188" y2="754.1667">
	<stop  offset="0" style="stop-color:#005EFF"/>
	<stop  offset="1" style="stop-color:#61F5E5"/>
</linearGradient>
<path class="st3" d="M694,760.6L442.7,556.5l173.9-121.6l128.8,138.7c56.1,60.5,142.4,82.6,220.7,56.6l0,0l-160,130.3
	C773.5,787.1,726.7,787.2,694,760.6z"/>
</svg>
