<?xml version="1.0" encoding="utf-8"?>
<!-- Generator: Adobe Illustrator 24.2.1, SVG Export Plug-In . SVG Version: 6.00 Build 0)  -->
<svg version="1.0" id="Layer_1" xmlns="http://www.w3.org/2000/svg" xmlns:xlink="http://www.w3.org/1999/xlink" x="0px" y="0px"
	 viewBox="0 0 1500 1000" style="enable-background:new 0 0 1500 1000;" xml:space="preserve">
<style type="text/css">
	.st0{fill:url(#SVGID_1_);}
	.st1{fill:url(#SVGID_2_);}
	.st2{fill:url(#SVGID_3_);}
	.st3{fill:url(#SVGID_4_);}
	.st4{fill:url(#SVGID_5_);}
	.st5{fill:url(#SVGID_6_);}
	.st6{fill:url(#SVGID_7_);}
	.st7{fill:url(#SVGID_8_);}
	.st8{fill:url(#SVGID_9_);}
	.st9{fill:url(#SVGID_10_);}
	.st10{fill:url(#SVGID_11_);}
	.st11{fill:url(#SVGID_12_);}
	.st12{fill:url(#SVGID_13_);}
	.st13{fill:url(#SVGID_14_);}
	.st14{fill:url(#SVGID_15_);}
	.st15{fill:url(#SVGID_16_);}
	.st16{fill:#FFFFFF;}
	.st17{fill:url(#SVGID_17_);}
	.st18{fill:url(#SVGID_18_);}
	.st19{fill:url(#SVGID_19_);}
	.st20{fill:url(#SVGID_20_);}
	.st21{fill:url(#SVGID_21_);}
	.st22{fill:url(#SVGID_22_);}
	.st23{fill:url(#SVGID_23_);}
	.st24{fill:url(#SVGID_24_);}
</style>
<g>
	<linearGradient id="SVGID_1_" gradientUnits="userSpaceOnUse" x1="876.7501" y1="300.7423" x2="832.7949" y2="505.0044">
		<stop  offset="0" style="stop-color:#61F5E5"/>
		<stop  offset="1" style="stop-color:#005EFF"/>
	</linearGradient>
	<path class="st0" d="M966.4,429.3L834.5,535.8l-108.7-79l143.7-86.3c6.2-3.7,14-3.3,19.8,1L966.4,429.3z"/>
	<linearGradient id="SVGID_2_" gradientUnits="userSpaceOnUse" x1="609.8564" y1="405.1795" x2="668.1766" y2="313.417">
		<stop  offset="0" style="stop-color:#FFD524"/>
		<stop  offset="1" style="stop-color:#F15A29"/>
	</linearGradient>
	<path class="st1" d="M533.6,349.7l131.8-106.6l108.7,79l-143.7,86.3c-6.2,3.7-14,3.3-19.8-1L533.6,349.7z"/>
	<linearGradient id="SVGID_3_" gradientUnits="userSpaceOnUse" x1="867.6968" y1="422.5283" x2="703.34" y2="232.8857">
		<stop  offset="0" style="stop-color:#F15A29"/>
		<stop  offset="1" style="stop-color:#FFD524"/>
	</linearGradient>
	<path class="st2" d="M789.4,206l177,143.7l-122.5,85.6l-90.7-97.7c-39.5-42.6-100.3-58.1-155.4-39.8l0,0L710.5,206
		C733.5,187.3,766.4,187.3,789.4,206z"/>
	<linearGradient id="SVGID_4_" gradientUnits="userSpaceOnUse" x1="681.6611" y1="322.8257" x2="748.8867" y2="568.4574">
		<stop  offset="0" style="stop-color:#005EFF"/>
		<stop  offset="1" style="stop-color:#61F5E5"/>
	</linearGradient>
	<path class="st3" d="M710.6,573l-177-143.7l122.5-85.6l90.7,97.7c39.5,42.6,100.3,58.1,155.4,39.8l0,0L789.5,573
		C766.5,591.7,733.6,591.7,710.6,573z"/>
</g>
<g>
	<path d="M508.8,778.3v27.9h-98.3v-22l49.3-56.8h-47.9v-27.7h94.9v21.8l-49.3,56.8H508.8z"/>
	<path d="M573.6,768.9l-11,11.2v26.1h-37.3V660.4h37.3v76.4l38.1-37.1H645l-44.2,45.6l47.9,60.9h-45.2L573.6,768.9z"/>
	<path d="M700.8,698.7V729h60.7v30.1h-60.7v47.2h-38.9V668.7h107.9v30.1H700.8z"/>
	<path d="M777.2,752.8c0-32,25.3-54.8,60.1-54.8c35.2,0,60.1,22.8,60.1,54.8c0,32.2-25,55.2-60.1,55.2
		C802.6,808,777.2,785,777.2,752.8z M859.8,752.8c0-16.1-9.6-25.2-22.4-25.2c-12.6,0-22.4,9-22.4,25.2c0,16.3,9.8,25.5,22.4,25.5
		C850.1,778.3,859.8,769.1,859.8,752.8z"/>
	<path d="M914.8,660.4h37.3v145.8h-37.3V660.4z"/>
	<path d="M1089.5,660.4v145.8h-35.6v-10.6c-7.1,8.4-17.5,12.4-31.2,12.4c-29.1,0-52.5-21.2-52.5-55.2c0-33.8,23.4-54.8,52.5-54.8
		c12.4,0,22.4,3.5,29.5,11v-48.5H1089.5z M1052.7,752.8c0-16.1-9.6-25.2-22.2-25.2c-12.8,0-22.4,9-22.4,25.2
		c0,16.3,9.6,25.5,22.4,25.5C1043.1,778.3,1052.7,769.1,1052.7,752.8z"/>
</g>
</svg>
